<svg width="172" height="60" viewBox="0 0 172 60" fill="none" xmlns="http://www.w3.org/2000/svg">
<path d="M10 26.0791V52.812L9.91992 52.9067L10 52.9741V57H0V17.5308L10 26.0791Z" fill="#7AB800"/>
<path d="M40 48.6909L30.1797 57H30V38.9019L40 30.3535V48.6909Z" fill="#11AFCC"/>
<path d="M55 57H45V52.9741L45.0801 52.9067L45 52.812V26.0791L55 17.5308V57Z" fill="#7AB800"/>
<path d="M25 38.9019V57H24.8203L15 48.6909V30.3535L25 38.9019Z" fill="#11AFCC"/>
<path d="M25 32.3232L15 23.7749V12H1.2251L0 10.9526V2H25V32.3232Z" fill="#183833"/>
<path d="M55 10.9526L53.7749 12H40V23.7749L30 32.3232V2H55V10.9526Z" fill="#183833"/>
<rect y="2" width="10" height="10" fill="#183833"/>
<rect width="10" height="10" transform="matrix(-1 0 0 1 55 2)" fill="#183833"/>
<path d="M76.85 24.07H81.01V37.25H76.85V24.07ZM71.13 22.25H86.73V25.93H71.13V22.25ZM89.0348 34.37V31.03H99.3748V34.37H89.0348ZM97.0148 22.25L103.835 37.25H99.4148L93.6948 24.01H94.8948L89.1548 37.25H84.7348L91.5548 22.25H97.0148ZM109.395 22.25V35.41L107.535 33.57H118.755V37.25H105.255V22.25H109.395ZM133.349 28.25V31.25H121.949V28.25H133.349ZM124.209 29.75V35.77L122.529 33.89H134.009V37.25H120.069V29.75V22.25H133.909V25.61H122.529L124.209 23.73V29.75ZM150.308 34.35L149.028 34.61V22.25H153.048V37.25H147.828L139.168 24.91L140.428 24.65V37.25H136.408V22.25H141.768L150.308 34.35ZM160.541 24.07H164.701V37.25H160.541V24.07ZM154.821 22.25H170.421V25.93H154.821V22.25ZM94.07 42.25V57.25H90.13V43.73L91.01 43.83L85.21 57.25H81.01L75.19 43.87L76.09 43.77V57.25H72.15V42.25H78.55L83.93 55.13H82.33L87.67 42.25H94.07ZM96.8766 42.25H101.017V57.25H96.8766V42.25ZM117.71 54.35L116.43 54.61V42.25H120.45V57.25H115.23L106.57 44.91L107.83 44.65V57.25H103.81V42.25H109.17L117.71 54.35ZM130.724 42.25C132.497 42.25 134.05 42.5633 135.384 43.19C136.73 43.8033 137.77 44.6767 138.504 45.81C139.25 46.93 139.624 48.2433 139.624 49.75C139.624 51.2567 139.25 52.5767 138.504 53.71C137.77 54.83 136.73 55.7033 135.384 56.33C134.05 56.9433 132.497 57.25 130.724 57.25H123.244V42.25H130.724ZM127.364 55.51L125.384 53.57H131.044C131.937 53.57 132.71 53.4167 133.364 53.11C134.03 52.79 134.544 52.3433 134.904 51.77C135.264 51.1967 135.444 50.5233 135.444 49.75C135.444 48.9633 135.264 48.29 134.904 47.73C134.544 47.1567 134.03 46.7167 133.364 46.41C132.71 46.09 131.937 45.93 131.044 45.93H125.384L127.364 43.99V55.51Z" fill="#183833"/>
<path d="M72.45 6.2V2.81H71.25V2H74.56V2.81H73.35V6.2H72.45ZM75.255 6.2V2H76.115L77.645 4.36L79.15 2H80V6.2H79.135L79.145 3.545L77.935 5.37H77.325L76.11 3.545L76.115 6.2H75.255Z" fill="#183833"/>
</svg>
